# xmcd CD database file
#
# Track frame offsets:
#	150
#	18102
#	32082
#	47689
#	66345
#	83797
#	99867
#	108625
#	118152
#	136155
#	152300
#	171487
#	184192
#	202740
#	214357
#	228280
#	239240
#	250680
#	262410
#
# Disc length: 3727 seconds
#
# Revision: 1
# Processed by: cddbd v1.5.2PL0 Copyright (c) Steve Scherf et al.
# Submitted via: CDex 2.09
#
DISCID=0a0e8d13
DTITLE=Slim Harpo - The Complete Excello Recordings Disk 4 - Harpo The Dynamite
DYEAR=1997
DGENRE=Blues
TTITLE0=I Just Can't Leave You
TTITLE1=That's Why I Love You
TTITLE2=Just For You
TTITLE3=Folsom Prison Blues
TTITLE4=Mutual Friend
TTITLE5=I've Been Your Good Thing For You
TTITLE6=I've Got My Finger On Your Trigger
TTITLE7=The Price Is Too High
TTITLE8=Rock Me Baby
TTITLE9=Baby Please Come Home
TTITLE10=The Hippy Song
TTITLE11=Hey Little Lee
TTITLE12=Jody Man
TTITLE13=Rainin' In My Heart
TTITLE14=Dynamite
TTITLE15=Stick Your Chest Out Baby
TTITLE16=Boogie Chillun
TTITLE17=The Music's Hot
TTITLE18=You Can't Make It
EXTD=YEAR: 1997
EXTT0=
EXTT1=
EXTT2=
EXTT3=
EXTT4=
EXTT5=
EXTT6=
EXTT7=
EXTT8=
EXTT9=
EXTT10=
EXTT11=
EXTT12=
EXTT13=
EXTT14=
EXTT15=
EXTT16=
EXTT17=
EXTT18=
PLAYORDER=
